# xmcd CD database file
#
# Track frame offsets:
#	150
#	17519
#	29027
#	45890
#	66420
#	78645
#	97578
#	110633
#	126283
#	138413
#	154457
#	165287
#	178642
#	190028
#	201837
#	211794
#	224136
#	233428
#	245413
#	256153
#
# Disc length: 3609 seconds
#
# Revision: 0
# Processed by: cddbd v1.5.2PL0 Copyright (c) Steve Scherf et al.
# Submitted via: CDex 1.70beta2
#
DISCID=110e1714
DTITLE=Dancehouse - Ballroom Nights 2 CD2
DYEAR=2008
DGENRE=Ballroom
TTITLE0=The Best Is Yet To Come (SF 29)
TTITLE1=Summerwind (SF 28)
TTITLE2=Sweet Dreams (SF 29)
TTITLE3=Popsicle Toes (SF 29)
TTITLE4=I'm Sitting OnTop Of The World (SF 29)
TTITLE5=Don't Know What I Was Doing (SF 29)
TTITLE6=Witchcraft (SF 29)
TTITLE7=It's A Good Life (SF 28)
TTITLE8=Crowded Island (SF 29)
TTITLE9=Jump (SF 29)
TTITLE10=Hello (SF 28)
TTITLE11=The Most Expensive Girl (QU 50)
TTITLE12=Bei Mir Bist Du Schön (QU 50)
TTITLE13=Theme from Spider man (QU 51)
TTITLE14=Chicago Overture (QU 51)
TTITLE15=Dosvedanya Mio Bambino (QU 51)
TTITLE16=Side By Side (QU 51)
TTITLE17=Beans And Cornbread (QU 50)
TTITLE18=Hey (QU 50)
TTITLE19=Never Ever Let You Go (QU 51)
EXTD=YEAR: 2008
EXTT0=
EXTT1=
EXTT2=
EXTT3=
EXTT4=
EXTT5=
EXTT6=
EXTT7=
EXTT8=
EXTT9=
EXTT10=
EXTT11=
EXTT12=
EXTT13=
EXTT14=
EXTT15=
EXTT16=
EXTT17=
EXTT18=
EXTT19=
PLAYORDER=
